<mxfile host="app.diagrams.net" modified="2024-01-21T04:31:49.190Z" agent="Mozilla/5.0 (Macintosh; Intel Mac OS X 10_15_7) AppleWebKit/537.36 (KHTML, like Gecko) Chrome/120.0.0.0 Safari/537.36" etag="qtXKCWi7Vmm_aqGUPWFG" version="22.1.21" type="google">
  <diagram name="Page-1" id="3wJtyTECtPKDYDXTxwJ-">
    <mxGraphModel grid="1" page="1" gridSize="10" guides="1" tooltips="1" connect="1" arrows="1" fold="1" pageScale="1" pageWidth="1700" pageHeight="1100" math="0" shadow="0">
      <root>
        <mxCell id="0" />
        <mxCell id="1" parent="0" />
        <mxCell id="vHcdsUJvBwSIHfUrbDWg-3" value="Model" style="shape=step;perimeter=stepPerimeter;whiteSpace=wrap;html=1;fixedSize=1;labelBackgroundColor=none;fillColor=#dae8fc;strokeColor=#6c8ebf;" vertex="1" parent="1">
          <mxGeometry x="690" y="840" width="120" height="80" as="geometry" />
        </mxCell>
        <mxCell id="STG6v0s9dP_hLEZZDNCE-16" style="edgeStyle=orthogonalEdgeStyle;rounded=0;orthogonalLoop=1;jettySize=auto;html=1;exitX=0;exitY=0;exitDx=119.99999999999999;exitDy=50;exitPerimeter=0;entryX=0;entryY=0.5;entryDx=0;entryDy=0;" edge="1" parent="1" source="vHcdsUJvBwSIHfUrbDWg-5" target="STG6v0s9dP_hLEZZDNCE-15">
          <mxGeometry relative="1" as="geometry" />
        </mxCell>
        <mxCell id="vHcdsUJvBwSIHfUrbDWg-5" value="Original Images" style="shape=cube;whiteSpace=wrap;html=1;boundedLbl=1;backgroundOutline=1;darkOpacity=0.05;darkOpacity2=0.1;fillColor=#fff2cc;strokeColor=#d6b656;" vertex="1" parent="1">
          <mxGeometry x="343" y="500" width="120" height="80" as="geometry" />
        </mxCell>
        <mxCell id="STG6v0s9dP_hLEZZDNCE-27" style="edgeStyle=orthogonalEdgeStyle;rounded=0;orthogonalLoop=1;jettySize=auto;html=1;exitX=0;exitY=0;exitDx=10;exitDy=0;exitPerimeter=0;entryX=0.5;entryY=1;entryDx=0;entryDy=0;" edge="1" parent="1" source="vHcdsUJvBwSIHfUrbDWg-6">
          <mxGeometry relative="1" as="geometry">
            <mxPoint x="590" y="800" as="targetPoint" />
          </mxGeometry>
        </mxCell>
        <mxCell id="STG6v0s9dP_hLEZZDNCE-28" style="edgeStyle=orthogonalEdgeStyle;rounded=0;orthogonalLoop=1;jettySize=auto;html=1;exitX=0;exitY=0;exitDx=40;exitDy=30;exitPerimeter=0;" edge="1" parent="1" source="vHcdsUJvBwSIHfUrbDWg-6" target="vHcdsUJvBwSIHfUrbDWg-3">
          <mxGeometry relative="1" as="geometry" />
        </mxCell>
        <mxCell id="vHcdsUJvBwSIHfUrbDWg-6" value="Sample Timesteps" style="shape=cube;whiteSpace=wrap;html=1;boundedLbl=1;backgroundOutline=1;darkOpacity=0.05;darkOpacity2=0.1;labelPosition=center;verticalLabelPosition=bottom;align=center;verticalAlign=top;fillColor=#fff2cc;strokeColor=#d6b656;" vertex="1" parent="1">
          <mxGeometry x="580" y="850" width="40" height="40" as="geometry" />
        </mxCell>
        <mxCell id="STG6v0s9dP_hLEZZDNCE-21" style="edgeStyle=orthogonalEdgeStyle;rounded=0;orthogonalLoop=1;jettySize=auto;html=1;exitX=0;exitY=0;exitDx=70;exitDy=80;exitPerimeter=0;entryX=0.5;entryY=0;entryDx=0;entryDy=0;" edge="1" parent="1" source="vHcdsUJvBwSIHfUrbDWg-11" target="vHcdsUJvBwSIHfUrbDWg-3">
          <mxGeometry relative="1" as="geometry" />
        </mxCell>
        <mxCell id="vHcdsUJvBwSIHfUrbDWg-11" value="Noisy Images" style="shape=cube;whiteSpace=wrap;html=1;boundedLbl=1;backgroundOutline=1;darkOpacity=0.05;darkOpacity2=0.1;" vertex="1" parent="1">
          <mxGeometry x="680" y="520" width="120" height="80" as="geometry" />
        </mxCell>
        <mxCell id="STG6v0s9dP_hLEZZDNCE-13" style="edgeStyle=orthogonalEdgeStyle;rounded=0;orthogonalLoop=1;jettySize=auto;html=1;entryX=0.5;entryY=0;entryDx=0;entryDy=0;" edge="1" parent="1" source="vHcdsUJvBwSIHfUrbDWg-12" target="vHcdsUJvBwSIHfUrbDWg-27">
          <mxGeometry relative="1" as="geometry" />
        </mxCell>
        <mxCell id="STG6v0s9dP_hLEZZDNCE-17" style="edgeStyle=orthogonalEdgeStyle;rounded=0;orthogonalLoop=1;jettySize=auto;html=1;entryX=0.5;entryY=0;entryDx=0;entryDy=0;" edge="1" parent="1" source="vHcdsUJvBwSIHfUrbDWg-12" target="STG6v0s9dP_hLEZZDNCE-15">
          <mxGeometry relative="1" as="geometry" />
        </mxCell>
        <mxCell id="vHcdsUJvBwSIHfUrbDWg-12" value="Gaussian Noises" style="shape=cube;whiteSpace=wrap;html=1;boundedLbl=1;backgroundOutline=1;darkOpacity=0.05;darkOpacity2=0.1;fillColor=#fff2cc;strokeColor=#d6b656;" vertex="1" parent="1">
          <mxGeometry x="530" y="370" width="120" height="80" as="geometry" />
        </mxCell>
        <mxCell id="vHcdsUJvBwSIHfUrbDWg-28" style="edgeStyle=orthogonalEdgeStyle;rounded=0;orthogonalLoop=1;jettySize=auto;html=1;exitX=0;exitY=0;exitDx=120;exitDy=50;exitPerimeter=0;entryX=0;entryY=0.5;entryDx=0;entryDy=0;" edge="1" parent="1" source="vHcdsUJvBwSIHfUrbDWg-23" target="vHcdsUJvBwSIHfUrbDWg-27">
          <mxGeometry relative="1" as="geometry" />
        </mxCell>
        <mxCell id="vHcdsUJvBwSIHfUrbDWg-23" value="Predicted Noises" style="shape=cube;whiteSpace=wrap;html=1;boundedLbl=1;backgroundOutline=1;darkOpacity=0.05;darkOpacity2=0.1;" vertex="1" parent="1">
          <mxGeometry x="870" y="850" width="120" height="80" as="geometry" />
        </mxCell>
        <mxCell id="vHcdsUJvBwSIHfUrbDWg-24" style="edgeStyle=orthogonalEdgeStyle;rounded=0;orthogonalLoop=1;jettySize=auto;html=1;exitX=1;exitY=0.5;exitDx=0;exitDy=0;entryX=0;entryY=0;entryDx=0;entryDy=30;entryPerimeter=0;" edge="1" parent="1" source="vHcdsUJvBwSIHfUrbDWg-3" target="vHcdsUJvBwSIHfUrbDWg-23">
          <mxGeometry relative="1" as="geometry" />
        </mxCell>
        <mxCell id="STG6v0s9dP_hLEZZDNCE-6" style="edgeStyle=orthogonalEdgeStyle;rounded=0;orthogonalLoop=1;jettySize=auto;html=1;exitX=1;exitY=0.5;exitDx=0;exitDy=0;entryX=0;entryY=0.5;entryDx=0;entryDy=0;" edge="1" parent="1" source="vHcdsUJvBwSIHfUrbDWg-27" target="STG6v0s9dP_hLEZZDNCE-5">
          <mxGeometry relative="1" as="geometry" />
        </mxCell>
        <mxCell id="vHcdsUJvBwSIHfUrbDWg-27" value="Loss Function" style="ellipse;whiteSpace=wrap;html=1;" vertex="1" parent="1">
          <mxGeometry x="1040" y="860" width="120" height="80" as="geometry" />
        </mxCell>
        <mxCell id="STG6v0s9dP_hLEZZDNCE-5" value="Loss" style="whiteSpace=wrap;html=1;aspect=fixed;fillColor=#d5e8d4;strokeColor=#82b366;" vertex="1" parent="1">
          <mxGeometry x="1210" y="875" width="50" height="50" as="geometry" />
        </mxCell>
        <mxCell id="STG6v0s9dP_hLEZZDNCE-15" value="Add Noise&lt;br&gt;Function" style="ellipse;whiteSpace=wrap;html=1;" vertex="1" parent="1">
          <mxGeometry x="530" y="510" width="120" height="80" as="geometry" />
        </mxCell>
        <mxCell id="STG6v0s9dP_hLEZZDNCE-31" style="edgeStyle=orthogonalEdgeStyle;rounded=0;orthogonalLoop=1;jettySize=auto;html=1;exitX=1;exitY=0.5;exitDx=0;exitDy=0;entryX=0;entryY=0;entryDx=0;entryDy=30;entryPerimeter=0;" edge="1" parent="1" source="STG6v0s9dP_hLEZZDNCE-15" target="vHcdsUJvBwSIHfUrbDWg-11">
          <mxGeometry relative="1" as="geometry" />
        </mxCell>
        <mxCell id="Ly4pFx7dafTTKKocCLrG-15" style="edgeStyle=orthogonalEdgeStyle;rounded=0;orthogonalLoop=1;jettySize=auto;html=1;exitX=0.5;exitY=0;exitDx=0;exitDy=0;exitPerimeter=0;entryX=0.5;entryY=1;entryDx=0;entryDy=0;" edge="1" parent="1" source="ml0VIzJ3aC0NMPXn-deK-1" target="Ly4pFx7dafTTKKocCLrG-14">
          <mxGeometry relative="1" as="geometry" />
        </mxCell>
        <mxCell id="ml0VIzJ3aC0NMPXn-deK-1" value="Noise Schedule" style="shape=cylinder3;whiteSpace=wrap;html=1;boundedLbl=1;backgroundOutline=1;size=15;fillColor=#f8cecc;strokeColor=#b85450;" vertex="1" parent="1">
          <mxGeometry x="560" y="720" width="60" height="80" as="geometry" />
        </mxCell>
        <mxCell id="Ly4pFx7dafTTKKocCLrG-16" style="edgeStyle=orthogonalEdgeStyle;rounded=0;orthogonalLoop=1;jettySize=auto;html=1;exitX=0.5;exitY=0;exitDx=0;exitDy=0;entryX=0.5;entryY=1;entryDx=0;entryDy=0;" edge="1" parent="1" source="Ly4pFx7dafTTKKocCLrG-14" target="STG6v0s9dP_hLEZZDNCE-15">
          <mxGeometry relative="1" as="geometry" />
        </mxCell>
        <mxCell id="Ly4pFx7dafTTKKocCLrG-14" value="Noise&lt;br&gt;Parameters" style="rounded=0;whiteSpace=wrap;html=1;" vertex="1" parent="1">
          <mxGeometry x="550" y="630" width="80" height="50" as="geometry" />
        </mxCell>
      </root>
    </mxGraphModel>
  </diagram>
</mxfile>
